# xmcd
#
# Track frame offsets:
#  150
#  13300
#  26395
#  37722
#  51902
#  61802
#  75017
#  88555
#  102465
#  114522
#  126340
#  144205
#
# Disc length: 2095 seconds
#
# Revision: 5
# Processed by: cddbd v1.5.1PL2 Copyright (c) Steve Scherf et al.
# Submitted via: Collectorz.com_Music_Collector 6.11
#
DISCID=8a082d0c
DTITLE=Albert King - The Big Blues
DYEAR=1994
DGENRE=Blues
TTITLE0=Let's Have A Natural Ball
TTITLE1=What Can I Do To Change Your Mind?
TTITLE2=I Get Evil
TTITLE3=Had You Told It Like It Was (It Wouldn't Be Like It)
TTITLE4=This Morning
TTITLE5=I Walked All Night Long
TTITLE6=Don't Throw Your Love On Me So Strong
TTITLE7=Travelin' To California
TTITLE8=I've Made Nights By Myself
TTITLE9=This Funny Feeling
TTITLE10=Ooh-Ee Baby
TTITLE11=Dyna Flow
EXTD=
EXTT0=
EXTT1=
EXTT2=
EXTT3=
EXTT4=
EXTT5=
EXTT6=
EXTT7=
EXTT8=
EXTT9=
EXTT10=
EXTT11=
PLAYORDER=
